<svg version="1" xmlns="http://www.w3.org/2000/svg" width="1365.333" height="1365.333" viewBox="0 0 1024.000000 1024.000000"><path d="M502 508.5v227.6l95.3-.4c92.9-.3 95.5-.4 106.7-2.5 59-11.3 103.6-35.9 136.8-75.7 25.1-30.1 40.4-64.4 46.8-105.5 2.6-16 2.6-55.6.1-72-6.7-43.7-21.2-80.9-42.8-110-7.4-10-23.6-26.9-33.4-35-38.4-31.3-82.3-47.9-140-52.9-7-.6-44.7-1.1-90.7-1.1H502v227.5zM673.4 368c20.4 1.7 44.9 8.9 60 17.7 25.8 15 47.9 43.3 56.1 71.8 5.2 18.2 6 25.1 6 52.5-.1 27.7-1.1 35.5-7.1 53.6-12.9 38.9-45.3 67.5-89.2 79-19.4 5-26.2 5.6-67.4 6.1l-38.8.5V367h33.9c18.6 0 39.5.5 46.5 1zM254.6 454.5c-19.4 3.2-38.3 9.9-55.7 19.8-30.6 17.4-54.5 45.8-66.3 78.5-12.2 34.2-9 82.5 8 116.4 18.3 36.6 52 61.4 95.5 70.2 35.9 7.3 65.5 5.5 98.9-5.9 14.9-5.1 38-15.7 38-17.5 0-1.4-37.3-64-38.1-64-.4 0-3.8 1.8-7.5 4-15.2 8.9-29.9 13-47 13-18.8 0-32.6-4.7-45.8-15.6-6.1-5-6.7-5.9-5-6.6 1-.4 45.3-14.5 98.4-31.4 53.1-16.9 96.8-30.9 97.1-31.3.4-.3-.4-5.6-1.8-11.6-14.4-63.9-51.5-104.1-107.6-116.6-12.3-2.8-47.7-3.6-61.1-1.4zm35.7 68c15.3 3.2 28.3 13.5 35.3 28.1 2 4.1 3.4 7.7 3.3 7.8-.2.1-26.3 9-57.9 19.6-31.6 10.6-58.1 19.6-58.9 19.8-1.2.5-1.3-1.1-.7-9.7.9-14.3 3-23.1 8.2-33.9 7.8-16.2 22.4-28.2 38.7-31.7 8.2-1.8 23.6-1.8 32 0z"/></svg>